<svg focusable="false" aria-hidden="true" width="100%" height="100%" viewBox="-60 -60 370.16547 405.82224" xmlns="http://www.w3.org/2000/svg"><defs id="defs1" /><g id="g1" transform="translate(0.67543506,-0.55235397)"><path fill="#fff" d="m 110.98,284.70628 c -6.35814,-4.06965 -9.5,-9.2896 -9.5,-15.7835 0,-11.17847 11.5462,-20.1854 22.25,-17.35673 2.3375,0.61773 5.76616,2.54758 7.61924,4.28855 8.31699,7.81381 8.20678,18.55867 -0.27316,26.63402 -3.30031,3.14284 -4.27421,3.50005 -10.36925,3.80324 -5.32483,0.26488 -7.35209,-0.0656 -9.72683,-1.58558 z m 55.08542,-27.42789 c -2.3541,-0.62236 -5.61293,-2.73327 -8.17503,-5.29536 -13.36567,-13.36568 -4.25116,-35.79636 14.54555,-35.79636 11.56223,0 20.11434,8.07333 20.8538,19.68631 0.4748,7.45652 -1.62258,12.51949 -7.22349,17.43715 -5.5219,4.84829 -11.8917,6.11209 -20.00083,3.96826 z M 61.359587,251.35777 c -1.991227,-0.53634 -5.103007,-2.5048 -6.915066,-4.37438 -2.694344,-2.77985 -3.375772,-4.3774 -3.739853,-8.76773 -0.684878,-8.25873 3.443449,-14.46682 10.976087,-16.5056 7.361803,-1.99255 14.800307,1.3966 17.861077,8.1379 2.323092,5.11657 2.391906,7.49756 0.363224,12.56774 -2.778293,6.94364 -11.08854,10.95059 -18.545469,8.94207 z M 216.98,228.08264 c -5.4826,-1.9948 -12.83332,-10.10985 -14.47774,-15.98313 -2.43636,-8.70183 -0.12282,-17.41228 6.34182,-23.87693 5.39747,-5.39746 9.75924,-6.96545 18.19172,-6.53963 6.1838,0.31227 7.98237,0.83638 11.60325,3.38123 2.3568,1.65642 5.64766,4.95037 7.31302,7.31989 2.80607,3.99255 3.02793,4.94302 3.02793,12.97207 0,7.98284 -0.23709,9.01501 -3.01626,13.13113 -4.38886,6.5002 -11.18355,10.37769 -18.83956,10.75108 -3.62789,0.17694 -7.78234,-0.29637 -10.14418,-1.15571 z m -103.8162,-6.01145 c -2.0989,-0.74857 -4.67505,-2.13828 -5.72476,-3.08826 -2.98508,-2.70146 -5.95919,-9.70489 -5.95749,-14.02865 0.006,-14.65933 18.57575,-22.89039 29.66879,-13.15058 6.37375,5.59623 8.01894,13.44191 4.44893,21.2163 -2.1848,4.75782 -4.41489,6.88992 -9.37375,8.96186 -4.46565,1.86587 -8.01244,1.89013 -13.06172,0.0893 z M 6.8951862,217.09859 c -7.3196234,-3.18697 -9.8182689,-12.44776 -5.1835049,-19.21176 2.6764772,-3.90606 5.5953538,-5.37896 10.5653717,-5.33139 7.356755,0.0704 12.185177,5.24853 12.196358,13.0797 0.0078,5.44629 -2.623363,9.41447 -7.629193,11.50604 -4.053979,1.69386 -5.979791,1.68562 -9.9490318,-0.0426 z M 163.23723,193.65114 c -7.1286,-3.63436 -11.56028,-10.90615 -11.65919,-19.13114 -0.1777,-14.77649 15.95746,-25.2459 29.45777,-19.11387 5.06887,2.30235 11.21065,9.35207 12.05124,13.83278 2.69544,14.36798 -6.64585,26.28109 -20.6075,26.28109 -3.47193,0 -6.96015,-0.70534 -9.24232,-1.86886 z M 58.793921,188.05601 c -1.752344,-0.76214 -4.396021,-3.21405 -5.874839,-5.4487 -2.291521,-3.46272 -2.623434,-4.85072 -2.246599,-9.39486 0.755494,-9.11027 6.121189,-14.19245 14.984187,-14.19245 6.117862,0 9.380235,1.68653 13.225827,6.83728 2.712466,3.63306 2.752488,11.9222 0.07935,16.43396 -3.625421,6.11904 -13.116031,8.83182 -20.167922,5.76477 z M 220.8064,166.47291 c -10.98459,-2.16484 -17.9966,-10.22422 -19.05548,-21.90178 -0.94944,-10.47055 5.65731,-20.56688 16.05743,-24.53873 9.5697,-3.6547 21.2841,0.15814 27.63088,8.99338 3.18596,4.43511 3.57573,5.69349 3.88966,12.55763 0.28147,6.15436 -0.0398,8.38303 -1.66237,11.53259 -5.17695,10.04882 -16.09555,15.47839 -26.86012,13.35691 z m -109.86902,-7.81583 c -9.48214,-5.7824 -12.11567,-16.48177 -6.35217,-25.80731 2.83953,-4.59446 11.49891,-8.81798 16.43648,-8.01672 11.29093,1.83227 18.08226,11.21701 16.03076,22.15245 -0.81523,4.34556 -5.8748,10.34506 -10.27471,12.18346 -4.6495,1.94268 -12.21626,1.69816 -15.84036,-0.51188 z M 7.903037,154.94152 C 1.8344278,152.86926 -0.52,149.48446 -0.52,142.83231 c 0,-5.08604 0.3101754,-5.86869 3.5289061,-8.90434 4.4732209,-4.21879 9.0662559,-5.16844 13.9010709,-2.87417 5.249133,2.49087 7.570023,5.90957 7.570023,11.15072 0,9.90564 -7.651586,15.78478 -16.576963,12.737 z M 164.03695,131.47311 c -8.11575,-4.04898 -12.5569,-10.80508 -12.45891,-18.95311 0.0719,-5.97696 1.69317,-10.05852 5.76601,-14.51579 4.23762,-4.6376 8.62103,-6.48421 15.39194,-6.48421 10.75595,0 19.5227,7.64134 20.50588,17.8735 0.71245,7.41464 -0.36841,11.30683 -4.47085,16.09961 -6.57912,7.68623 -16.50431,10.08586 -24.73407,5.98 z M 60.320568,126.17573 C 48.413006,120.88411 46.944059,105.22111 57.72086,98.45572 c 4.478175,-2.81128 12.985416,-2.30697 17.509706,1.03799 9.012561,6.66327 7.307271,21.37388 -3.021226,26.06247 -4.779866,2.16981 -8.020295,2.33867 -11.888772,0.61955 z M 215.98,102.65118 c -9.37007,-4.27485 -15.2586,-14.49213 -14.20965,-24.65541 0.64269,-6.22712 2.48299,-10.09527 6.90826,-14.52054 11.54338,-11.54337 31.64447,-8.23945 38.71348,6.36317 2.4568,5.07508 2.82402,14.98923 0.73945,19.96372 -5.05683,12.06729 -20.41326,18.20434 -32.15154,12.84906 z m -104,-5.79638 c -4.456,-2.35443 -6.4904,-4.399 -8.71577,-8.75932 -5.75317,-11.27261 3.27929,-25.47298 16.25388,-25.55352 7.83352,-0.0486 16.09047,6.81606 17.54883,14.58979 2.63193,14.02936 -12.84062,26.19369 -25.08694,19.72305 z M 6.8984385,92.6046 C 5.7535796,92.11206 3.6160796,90.282 2.1484385,88.53781 -4.0537004,81.16699 0.5696608,69.12243 10.091358,67.8453 c 5.184077,-0.69533 10.914313,1.85677 12.932693,5.75989 0.800772,1.54852 1.455949,4.86944 1.455949,7.37984 0,3.76518 -0.57505,5.19183 -3.284349,8.14819 -2.634802,2.87506 -4.167522,3.66127 -7.75,3.97538 -2.456108,0.21534 -5.402354,-0.0115 -6.5472125,-0.504 z M 167.83819,70.58757 C 157.34841,68.01432 150.53814,58.1203 151.81806,47.31339 c 1.95212,-16.48257 21.91609,-24.41124 34.23398,-13.59599 11.10984,9.75456 9.49571,27.59862 -3.11644,34.45207 -4.65388,2.52892 -10.69883,3.49712 -15.09741,2.4181 z M 57.72086,62.58428 c -5.332665,-3.3477 -7.412097,-7.61458 -6.981387,-14.3254 0.316383,-4.92953 0.855238,-6.26202 3.733051,-9.23117 6.691886,-6.90427 15.423137,-7.09205 22.041161,-0.47403 5.092351,5.09236 6.137277,10.95909 3.059569,17.17794 -2.907966,5.87586 -6.327733,8.11534 -13.047817,8.54451 -4.289582,0.27395 -6.283523,-0.1092 -8.804577,-1.69185 z M 114.48,35.3532 c -1.925,-0.54253 -5.01616,-2.41445 -6.86924,-4.15981 -8.31021,-7.82714 -8.20924,-19.00724 0.23862,-26.42456 4.43128,-3.890716 7.032,-4.62906 14.20889,-4.033896 4.54679,0.377055 6.09998,1.039547 9.07306,3.869996 8.42331,8.01922 8.5117,18.79795 0.21791,26.57398 -1.85308,1.7374 -5.16924,3.64739 -7.36924,4.24442 -4.60706,1.25026 -4.82063,1.24868 -9.5,-0.0701 z" id="path1" /></g></svg>